<svg id="Capa_1" enable-background="new 0 0 512.039 512.039" height="512" viewBox="0 0 512.039 512.039" width="512" xmlns="http://www.w3.org/2000/svg"><g id="XMLID_2636_"><path id="XMLID_2015_" d="m64.052 448.013 52.425-137.229 84.803 84.804z" fill="#e1e3e9"/><path id="XMLID_2047_" d="m64.052 448.013 75.001-28.653-46.349-46.348z" fill="#98a1b3"/><path id="XMLID_1488_" d="m496.886 75.04-59.861-59.861c-6.888-6.888-18.055-6.888-24.942 0l-295.606 295.605 84.803 84.803 295.606-295.605c6.888-6.888 6.888-18.055 0-24.942z" fill="#ffcb7c"/><path id="XMLID_1624_" d="m450.177 146.69 46.708-46.709c6.888-6.888 6.888-18.055 0-24.942l-59.861-59.861c-6.887-6.888-18.054-6.888-24.942 0l-46.708 46.709z" fill="#f6838d"/><path id="XMLID_1022_" d="m448.219 144.579-80.734-80.734c-9.373-9.373-24.569-9.373-33.941 0-9.373 9.373-9.373 24.569 0 33.941l80.734 80.734c9.373 9.373 24.569 9.373 33.941 0 9.373-9.373 9.373-24.569 0-33.941z" fill="#91def5"/><g id="XMLID_64_"><g id="XMLID_65_"><path id="XMLID_97_" d="m502 492.013h-219c-9.374 0-17-7.626-17-17 0-20.402-16.598-37-37-37h-110.752l86.608-33.089c1.271-.487 2.471-1.241 3.495-2.265l75.332-75.332c3.905-3.905 3.905-10.237 0-14.143-3.904-3.905-10.237-3.905-14.142 0l-68.26 68.261-28.259-28.259 200.89-200.89 28.259 28.259-69.002 69.002c-3.905 3.905-3.905 10.237 0 14.143 1.953 1.953 4.512 2.929 7.071 2.929s5.119-.976 7.071-2.929l70.781-70.781c4.111 1.725 8.563 2.632 13.156 2.632 9.082 0 17.62-3.537 24.042-9.958 6.421-6.422 9.958-14.96 9.958-24.042 0-4.593-.907-9.045-2.632-13.156l41.341-41.341c10.775-10.775 10.775-28.308 0-39.084l-59.861-59.863c-10.775-10.775-28.309-10.774-39.084 0l-41.341 41.341c-4.111-1.725-8.563-2.632-13.156-2.632-9.082 0-17.62 3.537-24.042 9.958-6.421 6.422-9.958 14.96-9.958 24.042 0 4.593.907 9.045 2.632 13.156l-209.741 209.741s-.006.015-.015.039c-.968.975-1.75 2.141-2.255 3.463l-49.969 130.798h-47.167c-5.523 0-10 4.477-10 10s4.477 10 10 10h219c9.374 0 17 7.626 17 17 0 20.402 16.598 37 37 37h219c5.523 0 10-4.477 10-10s-4.477-10-10-10zm-82.846-469.763c2.977-2.978 7.822-2.978 10.799 0l59.861 59.861c2.978 2.978 2.978 7.823 0 10.8l-39.561 39.561-70.66-70.661zm-78.538 48.666c2.729-2.729 6.314-4.094 9.899-4.094s7.17 1.365 9.899 4.094l80.733 80.734c5.459 5.458 5.459 14.34 0 19.799-2.644 2.644-6.16 4.101-9.899 4.101-3.74 0-7.255-1.457-9.899-4.101l-80.734-80.733c-5.458-5.46-5.458-14.341.001-19.8zm-9.106 38.978 28.26 28.259-200.89 200.89-28.259-28.259zm-211.197 218.869 62.988 62.988-42.7 16.313-36.601-36.601zm-24.131 63.166 23.953 23.953-38.76 14.808z"/><path id="XMLID_103_" d="m301.36 281.362c-1.86 1.86-2.93 4.44-2.93 7.07 0 2.64 1.07 5.21 2.93 7.07s4.44 2.93 7.07 2.93 5.21-1.07 7.07-2.93 2.93-4.43 2.93-7.07c0-2.63-1.07-5.21-2.93-7.07s-4.44-2.93-7.07-2.93c-2.63.001-5.21 1.071-7.07 2.93z"/></g></g></g></svg>